<svg width="82" height="84" viewBox="0 0 82 84" fill="none" xmlns="http://www.w3.org/2000/svg">
<path d="M80 42C80 64.0914 62.0914 82 40 82C26.2516 82 14.1233 75.0639 6.9234 64.5C2.55424 58.0895 0 50.343 0 42C0 19.9086 17.9086 2 40 2C62.0914 2 80 19.9086 80 42Z" fill="white"/>
<path d="M40.0004 2C62.0918 2 80.0004 19.9086 80.0004 42C80.0004 64.0914 62.0918 82 40.0004 82C26.2521 82 14.1237 75.0639 6.92383 64.5" stroke="#99DA3E" stroke-width="4" stroke-linecap="round"/>
<path d="M30.3024 30C26.4717 32.951 24 37.6082 24 42.8481C24 51.7685 31.1634 59 40 59C48.8366 59 56 51.7685 56 42.8481C56 37.6082 53.5283 32.951 49.6976 30" stroke="#99DA3E" stroke-width="4" stroke-linecap="round"/>
<rect x="38" y="25" width="4" height="19" rx="2" fill="#99DA3E"/>
</svg>
