<?xml version="1.0" encoding="utf-8"?>
<!-- Generator: Adobe Illustrator 21.1.0, SVG Export Plug-In . SVG Version: 6.00 Build 0)  -->
<svg version="1.1" id="Слой_1" xmlns="http://www.w3.org/2000/svg" xmlns:xlink="http://www.w3.org/1999/xlink" x="0px" y="0px"
	 viewBox="0 0 110 110" style="enable-background:new 0 0 110 110;" xml:space="preserve">
<style type="text/css">
	.st0{fill:#F64B4B;}
	.st1{fill:#FFFFFF;}
</style>
<circle class="st0" cx="55" cy="55" r="40"/>
<path class="st1" d="M53.6,56.4C53.2,56,53,55.5,53,55V40c0-1.1,0.9-2,2-2s2,0.9,2,2v15c0,1.1-0.9,2-2,2C54.5,57,54,56.8,53.6,56.4z
	"/>
<path class="st1" d="M73,55.8c0,10-8.1,18.2-18,18.2c-9.9,0-18-8.1-18-18.2c0-5.7,2.6-11,7.1-14.4c0.9-0.7,2.1-0.5,2.8,0.4
	c0.7,0.9,0.5,2.1-0.4,2.8C43,47.3,41,51.4,41,55.8C41,63.7,47.3,70,55,70s14-6.3,14-14.2c0-4.5-2-8.6-5.5-11.3
	c-0.9-0.7-1-1.9-0.4-2.8c0.7-0.9,1.9-1,2.8-0.4C70.4,44.9,73,50.1,73,55.8z"/>
</svg>
